<?xml version="1.0" encoding="UTF-8"?>
<svg version="1.1" xmlns="http://www.w3.org/2000/svg" width="500" height="500">
<path d="M0 0 C13.31811093 -0.04650672 26.63620228 -0.08196195 39.95437813 -0.10362434 C46.1396994 -0.11402543 52.32496479 -0.12811701 58.51025391 -0.15087891 C64.48843809 -0.17273895 70.46656879 -0.18459621 76.44478989 -0.18975449 C78.71633622 -0.19342674 80.9878799 -0.20059718 83.25940323 -0.21146011 C108.10221726 -0.32545159 130.93776294 1.37536935 150.16796875 19.078125 C171.90885182 41.88519211 175.23053994 77.00401959 175.1875 106.9375 C175.18689575 107.71279053 175.1862915 108.48808105 175.18566895 109.28686523 C175.11525446 142.59463592 171.01516756 174.73825189 149 201 C147.68 200.67 146.36 200.34 145 200 C145.30398763 194.48629338 145.73637138 189.36219907 147.5625 184.125 C149.97061978 176.6383702 150.57035981 168.36633734 147 161.1875 C146.34 160.135625 145.68 159.08375 145 158 C144.84144531 158.67546875 144.68289063 159.3509375 144.51953125 160.046875 C143.45532504 164.1155529 142.62651124 167.26292795 139.875 170.5 C135.19824033 172.94004852 130.89171764 174.67598594 125.59375 173.4375 C118.92366931 170.76946772 115.91956483 167.11101887 112.1875 161.0625 C108.4258706 151.34674864 111.0067238 139.56779356 114 130 C106.80211081 134.11307954 101.78490433 140.23973676 99.46875 148.27734375 C97.64407289 158.87567662 99.07100681 169.1019107 101.34375 179.4765625 C102.87348354 187.6897747 102.87348354 187.6897747 100.125 191.8125 C97.12315111 194.90263856 95.3313506 195.21273722 91.125 195.375 C86.37723764 195.29985556 86.37723764 195.29985556 83.5625 193.0625 C81.57177742 189.16068373 80.20878451 185.20327339 79 181 C78.34956281 182.72744016 77.70485156 184.4570369 77.0625 186.1875 C76.70285156 187.15042969 76.34320313 188.11335937 75.97265625 189.10546875 C74.45368037 193.62579456 73.86148749 197.67433886 73.875 202.4375 C73.87242187 203.34371094 73.86984375 204.24992188 73.8671875 205.18359375 C73.927484 207.95841996 73.927484 207.95841996 74.49447632 210.46891785 C75.20327964 215.41990798 75.18671117 220.31785475 75.22119141 225.3137207 C75.23845024 227.00974678 75.23845024 227.00974678 75.25605774 228.74003601 C75.29267355 232.46859043 75.32235768 236.19716195 75.3515625 239.92578125 C75.37468011 242.51556129 75.39807046 245.10533892 75.42172241 247.69511414 C75.47012467 253.11613929 75.51515686 258.5371774 75.55761719 263.95825195 C75.60681937 270.23182265 75.6631269 276.50530057 75.72303832 282.77877742 C75.78045786 288.81436375 75.83224218 294.84998298 75.88163376 300.8856411 C75.90326429 303.45541884 75.92642111 306.02518418 75.9510994 308.59493446 C75.98478475 312.1743544 76.01206972 315.75376584 76.03759766 319.33325195 C76.04897263 320.40491608 76.0603476 321.4765802 76.07206726 322.58071899 C76.08045876 324.03383736 76.08045876 324.03383736 76.08901978 325.51631165 C76.09951575 326.78637542 76.09951575 326.78637542 76.11022377 328.08209705 C76 330 76 330 75 331 C70.85315458 330.84351527 68.68564393 330.64955741 65.625 327.75 C63.13479576 323.5358082 62.68984061 320.18412274 63.75 315.4375 C64.03037109 314.13619141 64.03037109 314.13619141 64.31640625 312.80859375 C64.78710317 310.87470182 65.29738597 308.95015838 65.83984375 307.03515625 C68.12303614 298.85985448 68.85607045 292.30608344 65.4375 284.375 C64.963125 283.59125 64.48875 282.8075 64 282 C63.67 282 63.34 282 63 282 C62.85304688 282.59167969 62.70609375 283.18335938 62.5546875 283.79296875 C60.86957714 289.72959317 59.23542854 292.64932573 54 296 C49.38142882 297.87239372 44.54062201 296.70273325 40 295 C34.4149476 291.53082322 30.98071764 287.13697088 29.4453125 280.66015625 C27.84520276 271.10160595 29.49413402 262.24783875 32 253 C31.21625 253.66 30.4325 254.32 29.625 255 C27 257 27 257 25 257 C24.58427734 257.83724609 24.58427734 257.83724609 24.16015625 258.69140625 C23.36785548 260.26800475 22.56254477 261.83811517 21.74609375 263.40234375 C21.09833984 264.65724609 21.09833984 264.65724609 20.4375 265.9375 C20.00308594 266.77152344 19.56867188 267.60554688 19.12109375 268.46484375 C14.98525223 277.81732162 16.98663267 288.23782219 18.93261719 297.89746094 C19.99044325 303.26699609 21.00631675 308.5401146 18.875 313.75 C16.46294353 316.64446777 14.56347797 317.76648839 11 319 C7.04402193 319 4.90307776 318.73801261 1.81912613 316.21774769 C-1.03829229 311.16342443 -0.53629815 306.22512456 -0.48101807 300.51603699 C-0.48443577 299.23361297 -0.48785347 297.95118896 -0.49137473 296.62990361 C-0.50031931 293.07232678 -0.48431871 289.51523158 -0.46426249 285.95771611 C-0.44699418 282.12068586 -0.45283374 278.28368293 -0.45587158 274.44662476 C-0.45796934 267.79935963 -0.4454157 261.1522515 -0.42292023 254.50502586 C-0.39041678 244.89427174 -0.37999491 235.28359357 -0.37496826 225.67279045 C-0.36621301 210.08007572 -0.33959118 194.48744468 -0.30175781 178.89477539 C-0.26504369 163.74764423 -0.236729 148.60053581 -0.21972656 133.45336914 C-0.21867567 132.51975314 -0.21762477 131.58613714 -0.21654204 130.62422975 C-0.2113219 125.94056876 -0.20626706 121.25690762 -0.20129442 116.57324636 C-0.15982521 77.71543898 -0.08937051 38.85772501 0 0 Z M75 70 C75 94.75 75 119.5 75 145 C85.68575354 145.09510221 85.68575354 145.09510221 93.8125 139.25 C99.87315651 130.24559604 99.18147903 118.70239658 99.1875 108.25 C99.20586914 106.59484375 99.20586914 106.59484375 99.22460938 104.90625 C99.31425229 88.07371298 99.31425229 88.07371298 91.75 73.6875 C86.08289786 70.20996005 81.67406044 70 75 70 Z " fill="#C31A45" transform="translate(259,73)"/>
<path d="M0 0 C1.80597656 0.00676758 1.80597656 0.00676758 3.6484375 0.01367188 C6.59901073 0.0253805 9.54947859 0.04178005 12.5 0.0625 C11.5 2.0625 11.5 2.0625 9.27734375 2.921875 C7.87162109 3.36273438 7.87162109 3.36273438 6.4375 3.8125 C-3.71325602 7.38430548 -11.67847875 14.50816716 -16.9375 23.9375 C-20.62110836 32.98052139 -19.50999918 44.98434247 -16.5 54.0625 C-16.37044922 53.08410156 -16.37044922 53.08410156 -16.23828125 52.0859375 C-15.25630159 45.97784385 -14.24468351 42.17455905 -9.5 38.0625 C-5.4703191 36.81696227 -3.27363588 36.82445819 0.75 38.0625 C3.43955861 40.01854263 5.08032354 41.55462143 6.234375 44.71484375 C6.73683611 49.15571325 5.46909431 53.32671723 4.37109375 57.609375 C3.63981699 60.5082479 3.23222559 63.23182528 2.875 66.1875 C2.4296875 68.30078125 2.4296875 68.30078125 1.5 70.0625 C-0.75584535 71.48205287 -2.86076105 72.33227896 -5.40625 73.11328125 C-7.60792375 73.89817289 -7.60792375 73.89817289 -8.74609375 75.83203125 C-11.24497982 83.22510868 -9.89927193 90.13183425 -6.6875 97.0625 C-0.85047983 108.14299639 8.62600344 116.33084078 17.72485352 124.69555664 C22.24594516 128.85399695 26.62025992 133.13080125 30.9375 137.5 C34.41068314 141.01176877 37.86150539 144.48270975 41.625 147.6875 C50.89263951 155.58583089 59.03262933 164.46353442 66.5 174.0625 C67.62535156 175.44501953 67.62535156 175.44501953 68.7734375 176.85546875 C91.342942 205.39472273 94.82298821 242.32405425 90.75 277.4375 C88.80510205 290.73896989 86.06234937 303.76595799 80.5 316.0625 C80.02046875 317.12855469 79.5409375 318.19460938 79.046875 319.29296875 C70.83838201 335.96896058 57.93704179 346.93007354 40.5 353.0625 C13.14721363 361.23105206 -21.27717989 359.87815435 -46.828125 346.29296875 C-51.61975013 343.35265333 -55.72511746 340.25681394 -59.5 336.0625 C-61.37684971 334.24120187 -63.25942904 332.42603412 -65.14453125 330.61328125 C-66.5 329.0625 -66.5 329.0625 -66.5 327.0625 C-67.16 327.0625 -67.82 327.0625 -68.5 327.0625 C-68.5 326.4025 -68.5 325.7425 -68.5 325.0625 C-67.18 325.0625 -65.86 325.0625 -64.5 325.0625 C-64.5 325.7225 -64.5 326.3825 -64.5 327.0625 C-63.51 326.7325 -62.52 326.4025 -61.5 326.0625 C-62.01949219 325.65 -62.53898437 325.2375 -63.07421875 324.8125 C-70.53545997 318.63387511 -75.51606107 311.68302927 -77.5 302.0625 C-77.7156934 298.7098744 -77.6889961 295.41543077 -77.5 292.0625 C-76.42072474 293.68141289 -75.35607833 295.3129742 -74.38671875 297 C-71.08208124 302.75013068 -71.08208124 302.75013068 -65.5 306.0625 C-60.694631 306.0625 -57.35448632 305.03193907 -53.7890625 301.6953125 C-49.59351067 296.38094685 -48.96639763 289.60320452 -49.1328125 283.0390625 C-49.69222592 278.50424306 -51.04954088 274.31939507 -52.52734375 270.0078125 C-53.40171857 267.36010721 -54.01929255 264.80506253 -54.5 262.0625 C-47.22121768 265.26389003 -42.69107244 272.26844221 -39.625 279.37890625 C-37.74908907 285.52121182 -36.79889558 291.83478602 -35.84301758 298.17797852 C-35.69501709 299.15049561 -35.5470166 300.1230127 -35.39453125 301.125 C-35.26925049 302.00285156 -35.14396973 302.88070313 -35.01489258 303.78515625 C-34.58333429 306.32484892 -34.58333429 306.32484892 -32.5 309.0625 C-28.43897949 309.5988612 -26.28034308 309.57063038 -22.8125 307.3125 C-21.6678125 306.19875 -21.6678125 306.19875 -20.5 305.0625 C-19.736875 304.32 -18.97375 303.5775 -18.1875 302.8125 C-17.630625 302.235 -17.07375 301.6575 -16.5 301.0625 C-16.05551864 308.1742017 -17.60954253 313.28241549 -21.625 319.1875 C-24.96201133 322.92495269 -29.26308412 325.4594275 -33.5 328.0625 C-24.88077883 325.97819332 -17.43626525 323.80810894 -10.5 318.0625 C-9.54673828 317.27552734 -9.54673828 317.27552734 -8.57421875 316.47265625 C0.71519116 308.01869648 2.43189606 298.01888738 3.5 286.0625 C5.48567708 285.50911458 7.47135417 284.95572917 9.45703125 284.40234375 C12.62020789 282.32783211 13.61342152 279.59971473 14.5 276.0625 C14.9129731 272.34429942 14.92808088 268.67543096 14.875 264.9375 C14.86484863 263.91358154 14.85469727 262.88966309 14.84423828 261.8347168 C14.44910884 242.50859884 7.3227681 227.60602026 -6.5 214.0625 C-7.0775 213.52625 -7.655 212.99 -8.25 212.4375 C-9.5 211.0625 -9.5 211.0625 -9.5 209.0625 C-10.07784744 208.80931503 -10.65569489 208.55613007 -11.25105286 208.29527283 C-13.76707815 206.91609963 -15.45284476 205.36365516 -17.4831543 203.33813477 C-18.25463303 202.57296036 -19.02611176 201.80778595 -19.82096863 201.01942444 C-20.64704117 200.18930344 -21.47311371 199.35918243 -22.32421875 198.50390625 C-23.61547417 197.21552101 -23.61547417 197.21552101 -24.93281555 195.90110779 C-26.75674437 194.07854058 -28.57814745 192.25344277 -30.3972168 190.42602539 C-33.15263079 187.66000345 -35.91841115 184.90468009 -38.68554688 182.15039062 C-40.46157825 180.37303587 -42.23698817 178.59505987 -44.01171875 176.81640625 C-44.82767014 176.00450333 -45.64362152 175.1926004 -46.48429871 174.35609436 C-52.23074394 168.56363081 -57.42845449 162.45041722 -62.5 156.0625 C-63.20545456 155.18666763 -63.91090912 154.31083527 -64.63774109 153.40846252 C-82.73306688 130.61305211 -86.88134375 101.64956033 -83.8125 73.4375 C-80.83351998 49.70626331 -71.34809324 28.54709005 -52.34765625 13.33984375 C-36.75031359 2.31170455 -18.58480434 -0.1327486 0 0 Z " fill="#C21B45" transform="translate(152.5,69.9375)"/>
<path d="M0 0 C14.85 0 29.7 0 45 0 C46.12444311 8.99554484 46.12444311 8.99554484 46.08178711 12.28198242 C46.0752562 13.02022751 46.06872528 13.7584726 46.06199646 14.51908875 C46.05056107 15.29009415 46.03912567 16.06109955 46.02734375 16.85546875 C46.01469014 18.54752394 46.00232973 20.23958135 45.99023438 21.93164062 C45.96556476 24.55321461 45.93766453 27.17466748 45.90405273 29.79614258 C44.80374063 47.44727548 44.80374063 47.44727548 50.25 63.5 C51.11625 64.7375 51.11625 64.7375 52 66 C51.20069305 69.90772285 50.36155289 70.75896474 47 73 C43.93473649 73.54531842 41.06591671 73.54325893 38 73 C35.24430553 70.81840855 33.56411253 69.12822506 32 66 C31.69471765 60.82928023 32.47908775 56.73962198 34 51.8125 C36.78614869 42.04399086 37.58783708 33.77618096 32.875 24.546875 C32.58625 24.03640625 32.2975 23.5259375 32 23 C31.85304687 23.66386719 31.70609375 24.32773437 31.5546875 25.01171875 C29.95445214 31.31149588 28.54370514 34.49275797 23 38 C21.0625 38.8125 21.0625 38.8125 19 39 C17.9275 39.12375 16.855 39.2475 15.75 39.375 C10.80552023 38.88055202 7.72011282 37.25997308 4 34 C-0.7301003 27.99686036 -2.18056861 22.84680339 -2.1875 15.25 C-2.20586914 14.21359375 -2.20586914 14.21359375 -2.22460938 13.15625 C-2.22654297 12.47046875 -2.22847656 11.7846875 -2.23046875 11.078125 C-2.23457764 10.46356445 -2.23868652 9.84900391 -2.24291992 9.21582031 C-1.8983775 6.07303937 -0.86856123 3.0399643 0 0 Z " fill="#BF1B46" transform="translate(98,288)"/>
<path d="M0 0 C0.66 0 1.32 0 2 0 C7.92671045 16.57177291 11.04792916 32.34660288 12.25 49.875 C12.29733276 50.55727661 12.34466553 51.23955322 12.39343262 51.94250488 C13.18267216 63.63465568 13.18267216 63.63465568 12 66 C-2.19 66 -16.38 66 -31 66 C-29.85904251 63.14760626 -28.68985314 60.30527104 -27.4375 57.5 C-23.35175608 47.55210176 -25.00131089 37.79225831 -26.93261719 27.5090332 C-29.01381191 16.1724541 -29.01381191 16.1724541 -26.6875 11.1875 C-24.74220038 8.66581531 -23.11150231 7.19773918 -19.9140625 6.62890625 C-15.81195653 6.50990318 -13.59517964 6.6200981 -10.0625 8.875 C-7.298921 13.06224091 -6.64002079 17.0804372 -6 22 C-2.21410001 14.8876539 -0.9348289 7.958346 0 0 Z " fill="#C11B46" transform="translate(230,113)"/>
<path d="M0 0 C1.67255859 0.34417969 1.67255859 0.34417969 3.37890625 0.6953125 C13.05681685 2.93566302 25.40641723 6.14543373 31.79296875 14.28515625 C34.68964411 20.71640298 34.78185095 28.04104538 35 35 C32.9896084 32.9896084 32.35171346 31.68600059 31.25 29.125 C29.24138112 25.03336896 27.19194847 23.01213527 23 21 C19.03593282 20.33932214 17.38049922 20.79855924 13.8125 22.6875 C9.89056815 25.91219952 7.95331126 29.05627966 7 34 C6.51498777 41.9280846 6.50716597 49.30958745 9.24609375 56.8515625 C10.07388339 59.21054852 10.55594617 61.54261472 11 64 C6.92999416 61.85863804 4.57132562 59.58641291 1.875 55.875 C1.21242187 54.98554687 0.54984375 54.09609375 -0.1328125 53.1796875 C-4.74885556 45.31889451 -5.75865874 36.93398653 -6.81640625 28.02148438 C-7.54875649 21.94412281 -7.54875649 21.94412281 -11 17 C-15.28032524 17.25178384 -17.4541667 17.52859851 -20.75 20.375 C-21.4925 21.24125 -22.235 22.1075 -23 23 C-24 24 -25 25 -26 26 C-27.67652288 20.92386129 -26.08133172 16.75630788 -24 12 C-18.04500372 2.93395026 -10.85137912 -2.58138534 0 0 Z " fill="#BE1C46" transform="translate(179,72)"/>
<path d="M0 0 C-0.763125 0.969375 -1.52625 1.93875 -2.3125 2.9375 C-10.70163236 14.973045 -8.81387054 29.50774912 -6.375 43.25 C-6.21563965 44.04776855 -6.0562793 44.84553711 -5.89208984 45.66748047 C-5.0619189 50.06842066 -4.64661795 52.94946744 -7 57 C-9.17321439 59.3649686 -10.77113795 60.80559018 -14 61.31640625 C-17.83198095 61.42206749 -19.77425909 61.15049394 -23 59 C-24.47871825 52.76882645 -24.12750946 46.31144106 -24.09765625 39.94140625 C-24.0962413 38.79711655 -24.09482635 37.65282684 -24.09336853 36.47386169 C-24.08779301 32.83671399 -24.07524498 29.19962895 -24.0625 25.5625 C-24.05748184 23.0891936 -24.05291948 20.61588623 -24.04882812 18.14257812 C-24.0378316 12.09503088 -24.02111788 6.04751992 -24 0 C-20.9378174 -0.19533059 -17.87553679 -0.38153284 -14.8125 -0.5625 C-13.51602539 -0.64661133 -13.51602539 -0.64661133 -12.19335938 -0.73242188 C-7.95250921 -0.9761489 -4.14202181 -1.15770796 0 0 Z " fill="#C11A45" transform="translate(92,288)"/>
<path d="M0 0 C5.64832303 3.30014379 8.62416422 7.16310313 11.0234375 13.28125 C12.6450334 21.52436248 11.82287345 27.89600619 9.7734375 36.09375 C0.8634375 36.09375 -8.0465625 36.09375 -17.2265625 36.09375 C-17.46124737 31.44852022 -17.68335879 26.80619515 -17.87353516 22.15942383 C-17.94200196 20.57900874 -18.01780299 18.99889368 -18.10107422 17.41918945 C-18.21950373 15.14833926 -18.31152016 12.87771615 -18.3984375 10.60546875 C-18.44095642 9.89911789 -18.48347534 9.19276703 -18.52728271 8.4650116 C-18.58886719 6.46362305 -18.58886719 6.46362305 -18.2265625 3.09375 C-13.62491784 -1.71924497 -6.02477433 -2.45218885 0 0 Z " fill="#C21B46" transform="translate(181.2265625,142.90625)"/>
<path d="M0 0 C4.0303227 1.31348424 6.02422683 2.74456195 8.5625 6.125 C9.12066406 6.84945313 9.67882812 7.57390625 10.25390625 8.3203125 C15.12608215 15.79752204 16.86257542 22.40391925 18.0625 31.25 C18.35516255 33.38170797 18.65814454 35.51203095 18.97265625 37.640625 C19.09906494 38.57422852 19.22547363 39.50783203 19.35571289 40.46972656 C20.06545588 43.25706128 21.13605618 44.83844637 23 47 C27.28032524 46.74821616 29.4541667 46.47140149 32.75 43.625 C33.4925 42.75875 34.235 41.8925 35 41 C35.99288283 39.99293313 36.99134248 38.99126687 38 38 C38.0270043 39.45823212 38.04639787 40.91660675 38.0625 42.375 C38.07410156 43.18710937 38.08570313 43.99921875 38.09765625 44.8359375 C38 47 38 47 37 49 C18.52 49 0.04 49 -19 49 C-22.59221646 41.81556707 -23.13451739 36.80200877 -23 29 C-21.00295012 30.99704988 -20.31191187 32.33909237 -19.1875 34.875 C-17.34764646 38.59529209 -15.71734226 40.92520432 -12 43 C-8.22433541 43.47195807 -5.82399591 43.34492852 -2.3125 41.875 C1.61662889 38.68921982 4.07849345 34.96735911 5 30 C5.77694005 20.23093416 4.36697431 12.15438398 1 3 C0.67 2.01 0.34 1.02 0 0 Z " fill="#C11A46" transform="translate(290,375)"/>
<path d="M0 0 C7.26 0 14.52 0 22 0 C21.67 0.66 21.34 1.32 21 2 C14.73 2 8.46 2 2 2 C2.00184359 3.59065969 2.00368717 5.18131939 2.00558662 6.82018089 C2.04886366 44.54417867 2.08186164 82.26817341 2.10213066 119.99219086 C2.1046322 124.63118718 2.10722083 129.27018345 2.10986328 133.90917969 C2.1103879 134.83275503 2.11091252 135.75633037 2.11145304 136.70789285 C2.12016547 151.67979185 2.13594003 166.65167556 2.15430559 181.62356548 C2.17298138 196.97592265 2.18411179 212.3282718 2.18817699 227.68063986 C2.19092688 237.16066485 2.19962499 246.64064661 2.21583293 256.12065829 C2.22637119 262.61359795 2.22960783 269.10651513 2.22700275 275.59946273 C2.22571651 279.35053376 2.2277451 283.10152905 2.23841095 286.85258675 C2.24986796 290.91132676 2.24599827 294.96990364 2.24050903 299.02865601 C2.24633472 300.22513335 2.2521604 301.42161069 2.25816262 302.65434492 C2.25418052 303.73469625 2.25019842 304.81504758 2.24609566 305.92813683 C2.24723482 307.33500065 2.24723482 307.33500065 2.24839699 308.77028596 C2 311 2 311 0 313 C0 209.71 0 106.42 0 0 Z " fill="#9F2243" transform="translate(259,73)"/>
<path d="M0 0 C1.9375 0.3125 1.9375 0.3125 4 1 C4.33 1.99 4.66 2.98 5 4 C5.99 4.33 6.98 4.66 8 5 C12.35516139 10.71614932 15.13481768 17.102851 17 24 C17.21011719 24.66257812 17.42023438 25.32515625 17.63671875 26.0078125 C18 28 18 28 17 32 C12.71 32.99 8.42 33.98 4 35 C4.495 32.03 4.495 32.03 5 29 C5.80542321 18.80829858 3.44653911 9.54426216 0 0 Z " fill="#C31843" transform="translate(372,252)"/>
<path d="M0 0 C1.99704988 1.99704988 2.68808813 3.33909237 3.8125 5.875 C5.65235354 9.59529209 7.28265774 11.92520432 11 14 C16.05962615 14.63245327 18.89223189 13.96672141 23 11 C23.99 10.34 24.98 9.68 26 9 C25.34 10.98 24.68 12.96 24 15 C23.34 15 22.68 15 22 15 C22 15.66 22 16.32 22 17 C18.37 17 14.74 17 11 17 C11 17.33 11 17.66 11 18 C16.58669908 18.09914961 22.17288186 18.17160105 27.76025391 18.21972656 C29.65943325 18.23979629 31.55855115 18.26705851 33.45751953 18.30175781 C36.19318839 18.35048109 38.92803771 18.37301507 41.6640625 18.390625 C42.50804596 18.41127014 43.35202942 18.43191528 44.22158813 18.45318604 C49.65000325 18.45523514 52.69196664 17.60684003 57 14 C59.32277416 11.3908613 59.32277416 11.3908613 61 9 C61.0270043 10.45823212 61.04639787 11.91660675 61.0625 13.375 C61.07410156 14.18710937 61.08570313 14.99921875 61.09765625 15.8359375 C61 18 61 18 60 20 C41.52 20 23.04 20 4 20 C0.40778354 12.81556707 -0.13451739 7.80200877 0 0 Z " fill="#B51F47" transform="translate(267,404)"/>
<path d="M0 0 C1.875 0.125 1.875 0.125 4 1 C7.92088081 9.04812376 7.14936524 19.27043175 7 28 C7.66 28 8.32 28 9 28 C9 27.34 9 26.68 9 26 C10.32 26 11.64 26 13 26 C13.33 26.66 13.66 27.32 14 28 C14.66 27.67 15.32 27.34 16 27 C16.33 28.65 16.66 30.3 17 32 C12.71 32.99 8.42 33.98 4 35 C4.495 32.03 4.495 32.03 5 29 C5.80542321 18.80829858 3.44653911 9.54426216 0 0 Z " fill="#B41E47" transform="translate(372,252)"/>
<path d="M0 0 C4.1556484 1.33267345 6.14019002 2.89910263 8.75 6.375 C9.34296875 7.14585937 9.9359375 7.91671875 10.546875 8.7109375 C11.9218313 10.87686329 12.56520623 12.49421488 13 15 C12.01 15.33 11.02 15.66 10 16 C9.01 15.34 8.02 14.68 7 14 C7.10699219 15.31355469 7.21398437 16.62710937 7.32421875 17.98046875 C7.44618097 19.71608502 7.56722667 21.45176587 7.6875 23.1875 C7.79674805 24.48397461 7.79674805 24.48397461 7.90820312 25.80664062 C8.22693852 30.70016646 8.4072159 34.09100884 5 38 C4.34 38 3.68 38 3 38 C3.33 36.96875 3.66 35.9375 4 34.875 C6.71480236 23.72070337 4.89609987 13.59301048 1 3 C0.67 2.01 0.34 1.02 0 0 Z " fill="#BD1C46" transform="translate(290,375)"/>
<path d="M0 0 C0.33 0 0.66 0 1 0 C1.08004482 3.5219721 1.04005702 6.61981469 0 10 C1.65 9.67 3.3 9.34 5 9 C4.53328548 12.18921589 3.95440429 15.142855 2.97265625 18.21875 C1.94643013 22.20825555 1.7342115 25.8547548 1.8125 29.9375 C1.81894531 30.63681641 1.82539063 31.33613281 1.83203125 32.05664062 C1.90245033 36.77911984 2.22418326 41.34509957 3 46 C2.34 45.34 1.68 44.68 1 44 C1 42.68 1 41.36 1 40 C0.34 39.67 -0.32 39.34 -1 39 C-0.67 38.34 -0.34 37.68 0 37 C-0.66 36.67 -1.32 36.34 -2 36 C-2.0816082 33.62429457 -2.14077222 31.25144159 -2.1875 28.875 C-2.22520508 27.87726563 -2.22520508 27.87726563 -2.26367188 26.859375 C-2.33389025 22.08452584 -1.28271777 19.13405581 1 15 C1 14.01 1 13.02 1 12 C-1.64 12.66 -4.28 13.32 -7 14 C-6.21625 12.989375 -5.4325 11.97875 -4.625 10.9375 C-2.05758573 7.37366716 -0.95732243 4.26443627 0 0 Z " fill="#AE2046" transform="translate(356,202)"/>
<path d="M0 0 C0.33 0 0.66 0 1 0 C1.0270043 1.45823212 1.04639787 2.91660675 1.0625 4.375 C1.07410156 5.18710937 1.08570313 5.99921875 1.09765625 6.8359375 C1 9 1 9 0 11 C-18.48 11 -36.96 11 -56 11 C-56 10.67 -56 10.34 -56 10 C-55.42450409 9.99635437 -54.84900818 9.99270874 -54.256073 9.98895264 C-48.25331586 9.94706485 -42.25131885 9.87767547 -36.24902344 9.79248047 C-34.01049409 9.76429638 -31.7718657 9.74306914 -29.53320312 9.72900391 C-26.31068306 9.70753952 -23.08935062 9.6608694 -19.8671875 9.609375 C-18.37153763 9.60753204 -18.37153763 9.60753204 -16.84567261 9.60565186 C-10.93918016 9.48181859 -7.49525475 8.94067468 -3 5 C-1.21037181 2.38142305 -1.21037181 2.38142305 0 0 Z " fill="#911A3B" transform="translate(327,413)"/>
<path d="M0 0 C7.26 0 14.52 0 22 0 C21.67 0.66 21.34 1.32 21 2 C14.73 2 8.46 2 2 2 C2.020625 3.670625 2.04125 5.34125 2.0625 7.0625 C2.073969 17.38459612 1.49669654 27.69222581 1 38 C0.67 38 0.34 38 0 38 C0 25.46 0 12.92 0 0 Z " fill="#A31B3F" transform="translate(259,73)"/>
<path d="M0 0 C1.80597656 0.00676758 1.80597656 0.00676758 3.6484375 0.01367188 C6.59901073 0.0253805 9.54947859 0.04178005 12.5 0.0625 C11.04340201 2.97569598 9.1538411 3.07961259 6.125 4.125 C5.14789063 4.46660156 4.17078125 4.80820313 3.1640625 5.16015625 C1.27766911 5.79909595 -0.61054199 6.43268066 -2.5 7.0625 C-1.99396008 4.89375748 -1.50016187 3.06282373 -0.5 1.0625 C-4.46 1.0625 -8.42 1.0625 -12.5 1.0625 C-12.5 1.7225 -12.5 2.3825 -12.5 3.0625 C-16.79 3.0625 -21.08 3.0625 -25.5 3.0625 C-17.537212 -0.918894 -8.72277416 -0.06230553 0 0 Z " fill="#A52046" transform="translate(152.5,69.9375)"/>
<path d="M0 0 C-0.99 0.99 -1.98 1.98 -3 3 C-3 2.34 -3 1.68 -3 1 C-9.6 1 -16.2 1 -23 1 C-23 17.5 -23 34 -23 51 C-23.33 51 -23.66 51 -24 51 C-24 34.17 -24 17.34 -24 0 C-5 -1 -5 -1 0 0 Z " fill="#9C1E3E" transform="translate(92,288)"/>
<path d="M0 0 C0.33 0 0.66 0 1 0 C1.0553116 1.49955885 1.09336832 2.99975484 1.125 4.5 C1.14820313 5.3353125 1.17140625 6.170625 1.1953125 7.03125 C1 10 1 10 -1 18 C-7.93 18 -14.86 18 -22 18 C-22 17.34 -22 16.68 -22 16 C-11.605 15.505 -11.605 15.505 -1 15 C-0.67 10.05 -0.34 5.1 0 0 Z " fill="#A22446" transform="translate(192,161)"/>
<path d="M0 0 C3.92286166 3.92286166 4.74978815 10.93107508 5.19140625 16.34765625 C5.18821921 17.89974614 5.10557941 19.45150196 5 21 C3.01565372 19.01565372 2.27168106 17.6363263 1.125 15.125 C-0.48227947 11.80167778 -2.16314665 9.43158859 -5 7 C-2.69 7.33 -0.38 7.66 2 8 C1.67 7.4225 1.34 6.845 1 6.25 C0 4 0 4 0 0 Z " fill="#A82145" transform="translate(209,86)"/>
<path d="M0 0 C0.33 0.99 0.66 1.98 1 3 C1.66 3 2.32 3 3 3 C3 3.99 3 4.98 3 6 C2.34 6 1.68 6 1 6 C0.34 7.65 -0.32 9.3 -1 11 C-0.01 10.814375 0.98 10.62875 2 10.4375 C6.17087678 9.82338317 9.85034269 10.34479095 14 11 C14 11.33 14 11.66 14 12 C7.73 12 1.46 12 -5 12 C-3.38748923 7.96872308 -1.719106 3.98520027 0 0 Z " fill="#AD2047" transform="translate(204,167)"/>
<path d="M0 0 C0.66 0 1.32 0 2 0 C2.83919398 2.26882087 3.67151724 4.53977027 4.5 6.8125 C4.85771484 7.77639648 4.85771484 7.77639648 5.22265625 8.75976562 C6.27068746 11.64933739 7 13.90076061 7 17 C6.34 17 5.68 17 5 17 C5 15.68 5 14.36 5 13 C4.34 13 3.68 13 3 13 C3 12.01 3 11.02 3 10 C2.34 10 1.68 10 1 10 C0.67 10.99 0.34 11.98 0 13 C-0.96661363 9.87819599 -0.98988909 7.47916205 -0.5625 4.25 C-0.46066406 3.45078125 -0.35882813 2.6515625 -0.25390625 1.828125 C-0.17011719 1.22484375 -0.08632812 0.6215625 0 0 Z " fill="#AC2048" transform="translate(230,113)"/>
<path d="M0 0 C3.387199 1.4388102 5.3594104 3.22119499 7.75 6 C8.67039062 7.051875 8.67039062 7.051875 9.609375 8.125 C11 10 11 10 11 12 C10.34 12 9.68 12 9 12 C9 11.34 9 10.68 9 10 C8.34 10 7.68 10 7 10 C6.67 9.34 6.34 8.68 6 8 C5.67 9.65 5.34 11.3 5 13 C2.2946129 8.94191935 0 4.95110601 0 0 Z " fill="#A72247" transform="translate(98,332)"/>
<path d="M0 0 C0.33 0 0.66 0 1 0 C1.0270043 1.45823212 1.04639787 2.91660675 1.0625 4.375 C1.07410156 5.18710937 1.08570313 5.99921875 1.09765625 6.8359375 C1 9 1 9 0 11 C-2.31 10.67 -4.62 10.34 -7 10 C-7 8 -7 8 -4.625 5.5625 C-3.75875 4.716875 -2.8925 3.87125 -2 3 C-1.34 2.01 -0.68 1.02 0 0 Z " fill="#AF1D47" transform="translate(327,413)"/>
<path d="M0 0 C4.55519783 3.93963055 6.15451681 7.26928904 8 13 C7.01 13 6.02 13 5 13 C4.01 13.33 3.02 13.66 2 14 C2.33 11.36 2.66 8.72 3 6 C1.68 5.01 0.36 4.02 -1 3 C-0.67 2.01 -0.34 1.02 0 0 Z " fill="#BA1E47" transform="translate(379,258)"/>
<path d="M0 0 C0.33 0.66 0.66 1.32 1 2 C0.195625 2.45375 -0.60875 2.9075 -1.4375 3.375 C-4.08856572 4.74725665 -4.08856572 4.74725665 -5 7 C-7 8 -7 8 -9 9 C-9.33 9.66 -9.66 10.32 -10 11 C-12.72265625 11.4140625 -12.72265625 11.4140625 -16.0625 11.625 C-17.16722656 11.69976562 -18.27195312 11.77453125 -19.41015625 11.8515625 C-20.26480469 11.90054687 -21.11945313 11.94953125 -22 12 C-19.31578277 10.21052185 -17.18370277 9.26907857 -14.1875 8.1875 C-9.59158148 6.40540915 -6.63458512 4.27999145 -3 1 C-2.01 0.67 -1.02 0.34 0 0 Z " fill="#AA2247" transform="translate(146,386)"/>
<path d="M0 0 C1.32 0.66 2.64 1.32 4 2 C3.34 2.66 2.68 3.32 2 4 C1.72095371 7.11038944 1.72095371 7.11038944 1.8046875 10.7578125 C1.80893234 11.75238968 1.80893234 11.75238968 1.81326294 12.76705933 C1.82446565 14.88655583 1.84956949 17.00563104 1.875 19.125 C1.88502972 20.56119182 1.89415559 21.99739025 1.90234375 23.43359375 C1.924405 26.95586628 1.95893506 30.47789203 2 34 C1.34 34 0.68 34 0 34 C-0.16725324 29.3188055 -0.32784864 24.63744899 -0.48217773 19.95581055 C-0.53566794 18.36199744 -0.59100255 16.76824515 -0.64819336 15.17456055 C-0.72990942 12.88864258 -0.80506897 10.60259054 -0.87890625 8.31640625 C-0.90594131 7.59973282 -0.93297638 6.88305939 -0.96083069 6.14466858 C-1.01297644 4.43052233 -1.01185628 2.71489824 -1 1 C-0.67 0.67 -0.34 0.34 0 0 Z " fill="#A41E42" transform="translate(164,145)"/>
<path d="M0 0 C1.71428571 5.14285714 1.71428571 5.14285714 2 8 C1.54496094 8.44988281 1.08992188 8.89976563 0.62109375 9.36328125 C-1.35216837 11.35556276 -1.87598831 13.02110444 -2.6875 15.6875 C-3.06455078 16.89986328 -3.06455078 16.89986328 -3.44921875 18.13671875 C-3.63097656 18.75160156 -3.81273438 19.36648437 -4 20 C-4.97812873 16.94371936 -5.00835683 15.14722553 -4.00390625 12.109375 C-3.77509766 11.40039062 -3.54628906 10.69140625 -3.31054688 9.9609375 C-3.06369141 9.23132813 -2.81683594 8.50171875 -2.5625 7.75 C-2.19801758 6.63238281 -2.19801758 6.63238281 -1.82617188 5.4921875 C-1.22667019 3.65841765 -0.61455513 1.82877996 0 0 Z " fill="#AE2146" transform="translate(76,115)"/>
<path d="M0 0 C2.60895459 2.60895459 3.10973264 4.98266538 4.1875 8.5 C4.55230469 9.6653125 4.91710937 10.830625 5.29296875 12.03125 C6 15 6 15 5 17 C4.5875 15.88625 4.175 14.7725 3.75 13.625 C2.64453484 11.00679305 2.25119213 10.16506911 -0.1875 8.5625 C-0.785625 8.376875 -1.38375 8.19125 -2 8 C-1.34 5.36 -0.68 2.72 0 0 Z " fill="#B52047" transform="translate(235,272)"/>
<path d="M0 0 C0.66 0 1.32 0 2 0 C0.44966581 5.89126992 -2.54911639 11.02060001 -6 16 C-6.66 16.33 -7.32 16.66 -8 17 C-8 15.68 -8 14.36 -8 13 C-7.34 13 -6.68 13 -6 13 C-6 12.34 -6 11.68 -6 11 C-5.34 11 -4.68 11 -4 11 C-4.66 9.35 -5.32 7.7 -6 6 C-5.38125 5.938125 -4.7625 5.87625 -4.125 5.8125 C-1.72238859 5.171081 -1.72238859 5.171081 -0.75 2.4375 C-0.5025 1.633125 -0.255 0.82875 0 0 Z " fill="#B32146" transform="translate(231,384)"/>
<path d="M0 0 C1.875 0.125 1.875 0.125 4 1 C6.78834245 6.29785065 6.186469 12.17802335 6 18 C5.67 18 5.34 18 5 18 C4.80664062 17.20335937 4.61328125 16.40671875 4.4140625 15.5859375 C2.48205464 7.7134296 2.48205464 7.7134296 0 0 Z " fill="#971B3F" transform="translate(372,252)"/>
<path d="M0 0 C1.55741701 2.33612551 3.07282045 4.68345953 4.5625 7.0625 C4.99691406 7.75472656 5.43132812 8.44695312 5.87890625 9.16015625 C7 11 7 11 8 13 C6 12 4 11 2 10 C1.67 11.32 1.34 12.64 1 14 C0.06380187 10.84493858 -0.1057123 8.03413498 -0.0625 4.75 C-0.05347656 3.85796875 -0.04445313 2.9659375 -0.03515625 2.046875 C-0.02355469 1.37140625 -0.01195313 0.6959375 0 0 Z " fill="#982344" transform="translate(75,362)"/>
<path d="M0 0 C0.66 1.32 1.32 2.64 2 4 C3.65 3.67 5.3 3.34 7 3 C6.04270084 4.12588014 5.08412105 5.2506715 4.125 6.375 C3.59132812 7.00148438 3.05765625 7.62796875 2.5078125 8.2734375 C1.38567993 9.55836651 0.20628025 10.79371975 -1 12 C-2.45606519 7.47907032 -1.27032841 4.48351204 0 0 Z " fill="#AB2145" transform="translate(154,86)"/>
<path d="M0 0 C4.41889613 1.35021826 6.34345343 3.26115668 9 7 C8.01 7 7.02 7 6 7 C5.67 6.67 5.34 6.34 5 6 C5 7.65 5 9.3 5 11 C0 3.5 0 3.5 0 0 Z " fill="#B31F45" transform="translate(290,375)"/>
<path d="M0 0 C3.05381021 3.05381021 2.58935393 6.70208473 2.8125 10.8125 C2.87630859 11.62009766 2.94011719 12.42769531 3.00585938 13.25976562 C3.28219829 18.01201661 3.24033479 21.18738651 0 25 C-0.66 25 -1.32 25 -2 25 C-1.50886719 23.2984375 -1.50886719 23.2984375 -1.0078125 21.5625 C0.13586595 16.98778621 0.23072042 12.69236013 0.125 8 C0.11146484 6.83791016 0.11146484 6.83791016 0.09765625 5.65234375 C0.07439388 3.76809157 0.0385364 1.88400168 0 0 Z " fill="#A52145" transform="translate(295,388)"/>
<path d="M0 0 C3.88997191 1.49746706 5.46948052 3.70422078 7.75 7.125 C8.67039063 8.49011719 8.67039063 8.49011719 9.609375 9.8828125 C10.29773438 10.93082031 10.29773438 10.93082031 11 12 C10.67 12.66 10.34 13.32 10 14 C9.01 13.34 8.02 12.68 7 12 C6.855625 11.175 6.71125 10.35 6.5625 9.5 C6.27087348 6.83177823 6.27087348 6.83177823 3.9375 5.6875 C3.298125 5.460625 2.65875 5.23375 2 5 C2 4.34 2 3.68 2 3 C1.34 3 0.68 3 0 3 C0 2.01 0 1.02 0 0 Z " fill="#AF1F44" transform="translate(217,244)"/>
<path d="M0 0 C0.66 0 1.32 0 2 0 C2 0.99 2 1.98 2 3 C4.31 3 6.62 3 9 3 C5.35187527 5.33479983 2.25812212 5.38018947 -2 5 C-4.4375 3.5 -4.4375 3.5 -6 2 C-5.01 1.67 -4.02 1.34 -3 1 C-3 1.66 -3 2.32 -3 3 C-2.01 3 -1.02 3 0 3 C0 2.01 0 1.02 0 0 Z " fill="#AB2147" transform="translate(112,322)"/>
<path d="M0 0 C0.99 0.33 1.98 0.66 3 1 C1.02 3.31 -0.96 5.62 -3 8 C-4.32 7.67 -5.64 7.34 -7 7 C-7 5.02 -7 3.04 -7 1 C-6.01 2.485 -6.01 2.485 -5 4 C-3.35 3.34 -1.7 2.68 0 2 C0 1.34 0 0.68 0 0 Z " fill="#AA1D41" transform="translate(411,266)"/>
<path d="M0 0 C1.32 0 2.64 0 4 0 C4 0.66 4 1.32 4 2 C5.32 2 6.64 2 8 2 C7.67 3.98 7.34 5.96 7 8 C5.2925002 6.71937515 3.62626404 5.38232443 2 4 C2 3.34 2 2.68 2 2 C1.34 2 0.68 2 0 2 C0 1.34 0 0.68 0 0 Z " fill="#AA1C41" transform="translate(84,395)"/>
<path d="M0 0 C2.73704754 2.73704754 3.16182449 5.26044774 4 9 C3.6875 11.1875 3.6875 11.1875 3 13 C2.6579896 14.33113402 2.3235638 15.66426224 2 17 C0.4943096 11.19233704 -0.21824777 6.0018137 0 0 Z " fill="#902241" transform="translate(267,404)"/>
<path d="M0 0 C0.6796875 1.703125 0.6796875 1.703125 1 4 C-0.1796875 6.359375 -0.1796875 6.359375 -1.875 8.75 C-2.42929688 9.54921875 -2.98359375 10.3484375 -3.5546875 11.171875 C-4.03164062 11.77515625 -4.50859375 12.3784375 -5 13 C-5.33 13 -5.66 13 -6 13 C-6 11.35 -6 9.7 -6 8 C-5.01 7.67 -4.02 7.34 -3 7 C-3 6.34 -3 5.68 -3 5 C-2.34 5 -1.68 5 -1 5 C-0.67 3.35 -0.34 1.7 0 0 Z " fill="#AE2046" transform="translate(134,378)"/>
<path d="M0 0 C-1 1.5 -1 1.5 -3 3 C-5.79873829 3.39491399 -8.13817454 3.227129 -11 3 C-11.66 2.34 -12.32 1.68 -13 1 C-8.59085217 -0.10228696 -4.51617599 -0.07654536 0 0 Z " fill="#AE224A" transform="translate(83,346)"/>
<path d="M0 0 C0.33 0.66 0.66 1.32 1 2 C1.66 2 2.32 2 3 2 C3.08076963 4.45898655 3.14037143 6.91533742 3.1875 9.375 C3.21263672 10.07367188 3.23777344 10.77234375 3.26367188 11.4921875 C3.29296875 13.5234375 3.29296875 13.5234375 3 17 C2.01 17.66 1.02 18.32 0 19 C0 12.73 0 6.46 0 0 Z " fill="#A62044" transform="translate(408,236)"/>
<path d="M0 0 C0.33 0 0.66 0 1 0 C1.07347656 1.17755859 1.07347656 1.17755859 1.1484375 2.37890625 C1.5620036 8.19022303 2.11782148 13.478943 4 19 C2 19 2 19 0.375 17.5 C-0.07875 17.005 -0.5325 16.51 -1 16 C-0.67 15.01 -0.34 14.02 0 13 C0.06937062 10.77181559 0.08457084 8.54165476 0.0625 6.3125 C0.05347656 5.13300781 0.04445312 3.95351562 0.03515625 2.73828125 C0.02355469 1.83464844 0.01195312 0.93101562 0 0 Z " fill="#A82245" transform="translate(141,148)"/>
<path d="M0 0 C0.99 0.33 1.98 0.66 3 1 C2.67 2.65 2.34 4.3 2 6 C-0.97 5.505 -0.97 5.505 -4 5 C-2.68 3.35 -1.36 1.7 0 0 Z " fill="#CB183C" transform="translate(148,382)"/>
<path d="M0 0 C-0.66 0 -1.32 0 -2 0 C-2 0.66 -2 1.32 -2 2 C-6.02040985 2.69584017 -9.08263419 3.1700097 -13 2 C-11.5882217 1.46605821 -10.17029756 0.94834896 -8.75 0.4375 C-7.96109375 0.14746094 -7.1721875 -0.14257812 -6.359375 -0.44140625 C-3.80896548 -1.04522837 -2.44677771 -0.8473932 0 0 Z " fill="#B01D4A" transform="translate(127,74)"/>
<path d="M0 0 C0.66 0 1.32 0 2 0 C2.99 2.31 3.98 4.62 5 7 C3.35 6.67 1.7 6.34 0 6 C-0.38218767 4.34385343 -0.71395102 2.67542976 -1 1 C-0.67 0.67 -0.34 0.34 0 0 Z " fill="#B12145" transform="translate(115,373)"/>
<path d="M0 0 C2.86724686 0.57344937 3.8614515 0.8614515 6 3 C3 5 3 5 -1 5 C-0.67 3.35 -0.34 1.7 0 0 Z " fill="#B31D45" transform="translate(310,364)"/>
<path d="M0 0 C0.66 0 1.32 0 2 0 C1.01 3.96 0.02 7.92 -1 12 C-2.46132217 9.07735566 -3.34099246 7.07536854 -4 4 C-2.68 3.67 -1.36 3.34 0 3 C0 2.01 0 1.02 0 0 Z " fill="#B01E46" transform="translate(277,337)"/>
<path d="M0 0 C0.66 3.63 1.32 7.26 2 11 C-3.2173913 4.56521739 -3.2173913 4.56521739 -5 1 C-2 0 -2 0 0 0 Z " fill="#B91F49" transform="translate(406,225)"/>
<path d="M0 0 C1.9375 0.6875 1.9375 0.6875 4 2 C4.75 4.625 4.75 4.625 5 7 C4.01 7 3.02 7 2 7 C0.5393715 4.35261084 0 3.10551666 0 0 Z " fill="#B0163D" transform="translate(98,332)"/>
<path d="M0 0 C0.33 0.66 0.66 1.32 1 2 C1.66 2 2.32 2 3 2 C3 1.34 3 0.68 3 0 C3.99 0.33 4.98 0.66 6 1 C5.2884375 1.6496875 5.2884375 1.6496875 4.5625 2.3125 C2.76313043 4.02309613 2.76313043 4.02309613 2 7 C1.34 7 0.68 7 0 7 C-0.38133299 5.0085944 -0.71325582 3.00720923 -1 1 C-0.67 0.67 -0.34 0.34 0 0 Z " fill="#B61F46" transform="translate(134,313)"/>
<path d="M0 0 C-4.455 3.465 -4.455 3.465 -9 7 C-9.33 6.34 -9.66 5.68 -10 5 C-9 2 -9 2 -6.125 0.25 C-3 -1 -3 -1 0 0 Z " fill="#B02046" transform="translate(375,201)"/>
<path d="M0 0 C0.33 0 0.66 0 1 0 C1 2.31 1 4.62 1 7 C0.34 6.67 -0.32 6.34 -1 6 C-3.60931266 6.89363605 -3.60931266 6.89363605 -6 8 C-5.02471263 6.66382648 -4.04466681 5.3311249 -3.0625 4 C-2.24458984 2.88625 -2.24458984 2.88625 -1.41015625 1.75 C-0.94480469 1.1725 -0.47945312 0.595 0 0 Z " fill="#A81F45" transform="translate(135,371)"/>
<path d="M0 0 C0.66 0 1.32 0 2 0 C2.33 0.99 2.66 1.98 3 3 C2.34 3.66 1.68 4.32 1 5 C0.60235737 6.98821313 0.26224651 8.98944339 0 11 C-0.66 11 -1.32 11 -2 11 C-1.125 3.375 -1.125 3.375 0 0 Z " fill="#AC2247" transform="translate(373,203)"/>
<path d="M0 0 C1.1640625 3.671875 1.1640625 3.671875 -0.3125 6.625 C-2 9 -2 9 -4 11 C-5 8 -5 8 -4.00390625 5.95703125 C-3.52824219 5.24933594 -3.05257812 4.54164062 -2.5625 3.8125 C-2.08941406 3.09707031 -1.61632812 2.38164063 -1.12890625 1.64453125 C-0.75636719 1.10183594 -0.38382812 0.55914062 0 0 Z " fill="#AC2047" transform="translate(83,102)"/>
<path d="M0 0 C2.65776679 0.65088166 4.70767067 1.39144462 7.0625 2.75 C4.24765955 4.15742022 2.49313887 3.41652164 -0.5625 2.8125 C-1.56539063 2.61785156 -2.56828125 2.42320312 -3.6015625 2.22265625 C-4.37242187 2.06667969 -5.14328125 1.91070312 -5.9375 1.75 C-2.9375 -0.25 -2.9375 -0.25 0 0 Z " fill="#A62547" transform="translate(340.9375,141.25)"/>
<path d="M0 0 C2.375 -0.125 2.375 -0.125 5 0 C5.66 0.66 6.32 1.32 7 2 C6.625 4.125 6.625 4.125 6 6 C3.97945196 4.35830472 1.97956942 2.69088222 0 1 C0 0.67 0 0.34 0 0 Z " fill="#AB1D44" transform="translate(183,130)"/>
<path d="M0 0 C0.33 1.32 0.66 2.64 1 4 C0.01 4 -0.98 4 -2 4 C-2 4.66 -2 5.32 -2 6 C-4.31 6.33 -6.62 6.66 -9 7 C-8.01 6.34 -7.02 5.68 -6 5 C-3.96864317 3.36898357 -1.99068127 1.68101974 0 0 Z " fill="#AC2549" transform="translate(100,370)"/>
<path d="M0 0 C0.99 0.33 1.98 0.66 3 1 C4.6875 4.5625 4.6875 4.5625 6 8 C2.83884224 6.63016497 2.0072908 6.0109362 0 3 C0 2.01 0 1.02 0 0 Z " fill="#AA2348" transform="translate(323,395)"/>
<path d="M0 0 C1.04449911 3.13349732 0.93423645 3.98968256 0 7 C-0.66 7 -1.32 7 -2 7 C-2.33 7.66 -2.66 8.32 -3 9 C-3.33 8.01 -3.66 7.02 -4 6 C-2.0625 2.8125 -2.0625 2.8125 0 0 Z " fill="#B62148" transform="translate(166,350)"/>
<path d="M0 0 C2.475 0.99 2.475 0.99 5 2 C5.33 4.64 5.66 7.28 6 10 C3.25722422 6.80009492 1.3697164 3.99500618 0 0 Z " fill="#AA2345" transform="translate(79,208)"/>
<path d="M0 0 C0.66 0.33 1.32 0.66 2 1 C1.01 3.97 0.02 6.94 -1 10 C-1.33 10 -1.66 10 -2 10 C-2.6875 6.6875 -2.6875 6.6875 -3 3 C-1.5625 1.0625 -1.5625 1.0625 0 0 Z " fill="#AD2146" transform="translate(85,294)"/>
<path d="M0 0 C1.98 1.65 3.96 3.3 6 5 C3.3333581 6.33332095 1.83319697 5.67102033 -1 5 C-0.67 3.35 -0.34 1.7 0 0 Z " fill="#AD2245" transform="translate(199,223)"/>
<path d="M0 0 C3.65316671 1.24976756 4.78065836 1.67098753 7 5 C5.35 5 3.7 5 2 5 C1.34 3.35 0.68 1.7 0 0 Z " fill="#A31634" transform="translate(290,375)"/>
<path d="M0 0 C3 3.75 3 3.75 3 6 C0.03 5.505 0.03 5.505 -3 5 C-2.67 4.34 -2.34 3.68 -2 3 C-1.34 3 -0.68 3 0 3 C0 2.01 0 1.02 0 0 Z " fill="#B41D45" transform="translate(421,112)"/>
<path d="M0 0 C1.74627478 2.61941217 2.38722388 4.03824877 3 7 C2.01 7 1.02 7 0 7 C0 4.69 0 2.38 0 0 Z " fill="#822B43" transform="translate(349,281)"/>
</svg>
